<svg width="183" height="67" viewBox="0 0 183 67" fill="none" xmlns="http://www.w3.org/2000/svg">
<path d="M0.500288 20.5766C1.38886 25.4099 1.08523 28.1731 2.29258 29.3719C6.76918 33.8537 11.1363 38.7438 16.6071 41.9602C30.9819 51.0636 47.0376 54.7092 63.8044 55.7008C92.3785 57.4491 119.702 51.6413 146.623 42.4434C149.506 41.4653 152.333 40.6912 155.42 39.7676C155.623 39.8222 155.976 40.1356 156.478 40.7077C154.052 44.8716 151.571 49.2397 149.349 53.4583C148.285 55.7991 147.519 58.6574 147.678 61.3256C147.702 62.864 149.397 65.506 150.823 65.8882C152.656 66.3795 155.28 65.5509 157.238 64.7627C158.531 64.0148 159.227 62.2319 160.072 60.7078C166.41 49.2771 173.156 37.9555 179.345 26.266C184.635 16.3047 182.101 11.906 171.547 9.73431C160.584 7.45345 149.732 4.76423 139.028 2.33381C135.713 1.66451 132.086 1.34895 128.309 0.774628C129.882 10.3866 129.882 10.3866 162.067 22.2928C144.359 31.3335 126.578 35.7593 108.553 39.4635C90.5277 43.1676 72.3989 43.9993 53.9079 42.1081C34.8057 40.0531 18.4179 31.9422 0.500288 20.5766Z" fill="#1B0C48"/>
</svg>
