<svg width="200" height="200" viewBox="0 0 200 200" fill="none" xmlns="http://www.w3.org/2000/svg">
<g clip-path="url(#clip0_374_744)">
<path fill-rule="evenodd" clip-rule="evenodd" d="M18.4294 66.2124C15.6458 53.3151 19.2658 39.3129 29.2893 29.2894C39.3129 19.2659 53.315 15.6459 66.2123 18.4294C73.3638 7.34143 85.8246 0.00012207 100 0.00012207C114.175 0.00012207 126.636 7.34145 133.788 18.4295C146.685 15.6459 160.687 19.2659 170.711 29.2894C180.734 39.313 184.354 53.3151 181.571 66.2124C192.659 73.3639 200 85.8247 200 100C200 114.175 192.659 126.636 181.571 133.788C184.354 146.685 180.734 160.687 170.711 170.711C160.687 180.734 146.685 184.354 133.788 181.571C126.636 192.659 114.175 200 100 200C85.8246 200 73.3639 192.659 66.2123 181.571C53.315 184.354 39.3129 180.734 29.2893 170.711C19.2658 160.687 15.6458 146.685 18.4294 133.788C7.34132 126.636 0 114.175 0 100C0 85.8247 7.34132 73.3639 18.4294 66.2124ZM71.4555 128.495C87.1454 144.184 112.584 144.184 128.274 128.495C143.964 112.805 143.964 87.3663 128.274 71.6763C112.584 55.9864 87.1454 55.9864 71.4555 71.6763C55.7656 87.3663 55.7656 112.805 71.4555 128.495Z" fill="black"/>
</g>
<defs>
<clipPath id="clip0_374_744">
<rect width="200" height="200" fill="white"/>
</clipPath>
</defs>
</svg>
