<svg width="374" height="59" viewBox="0 0 374 59" fill="none" xmlns="http://www.w3.org/2000/svg">
<mask id="path-1-outside-1_11257_355" maskUnits="userSpaceOnUse" x="-0.439453" y="-0.200012" width="374" height="59" fill="black">
<rect fill="white" x="-0.439453" y="-0.200012" width="374" height="59"/>
<path d="M23.6005 0.799988C24.7525 0.799988 25.5205 1.75999 25.5205 2.71999C25.5205 2.97599 25.4565 3.29599 25.3285 3.55199C24.9445 4.31999 24.2405 7.39199 24.2405 11.68C24.2405 15.84 25.5205 20.96 25.5205 25.76C25.5205 33.504 15.9205 36 10.1605 36C6.83255 36 0.560547 35.168 0.560547 29.6C0.560547 25.504 3.95255 23.52 4.08055 23.456C4.40055 23.264 4.72055 23.2 5.04055 23.2C6.00055 23.2 6.96055 24.032 6.96055 25.12C6.96055 27.232 4.40055 26.72 4.40055 29.6C4.40055 31.072 6.44855 32.16 10.1605 32.16C15.9205 32.16 21.6805 29.536 21.6805 25.76C21.6805 21.6 20.4005 16.48 20.4005 11.68C20.4005 7.00799 20.9765 3.67999 21.8725 1.88799C22.1925 1.24799 22.8965 0.799988 23.6005 0.799988Z"/>
<path d="M37.7105 2.71999C38.9905 2.71999 39.6305 4.63999 39.6305 5.91999C39.6305 7.00799 38.7985 7.83999 37.7105 7.83999C36.6225 7.83999 35.7905 5.72799 35.7905 4.63999C35.7905 3.55199 36.6225 2.71999 37.7105 2.71999ZM33.8705 16.8C35.0225 16.8 35.7905 17.76 35.7905 18.72C35.7905 18.848 35.7265 18.976 35.7265 19.104C35.2785 21.472 35.1505 23.968 35.1505 25.12C35.1505 30.368 36.3665 32.16 40.9105 32.16C41.9345 32.16 42.8305 33.056 42.8305 34.08C42.8305 35.104 41.9345 36 40.9105 36C33.9345 36 31.3105 31.392 31.3105 25.12C31.3105 23.712 31.4385 21.088 32.0145 18.336C32.2065 17.44 32.9745 16.8 33.8705 16.8Z"/>
<path d="M69.7206 20C69.7206 20.96 68.9525 21.92 67.8005 21.92C66.9685 21.92 66.2645 21.344 66.0085 20.576C65.6245 19.488 64.4085 18.72 63.3205 18.72C58.8405 18.72 53.7205 24.224 53.7205 28.96C53.7205 31.136 54.6805 32.16 56.2805 32.16C60.3765 32.16 65.6245 28.32 67.2886 23.264C67.5445 22.496 68.2486 21.92 69.0806 21.92C70.1046 21.92 71.0005 22.816 71.0005 23.84C71.0005 28.448 72.3446 32.16 75.4806 32.16C76.5046 32.16 77.4006 33.056 77.4006 34.08C77.4006 35.104 76.5046 36 75.4806 36C71.1926 36 68.9525 32.8 67.9925 29.728C64.9845 33.44 60.6325 36 56.2805 36C53.3365 36 51.3525 34.272 50.4565 31.968C47.9605 34.336 44.5045 36 40.9205 36C39.8965 36 39.0005 35.104 39.0005 34.08C39.0005 33.056 39.8965 32.16 40.9205 32.16C44.8885 32.16 49.1765 28.576 50.3925 25.568C52.0565 19.936 57.4325 14.88 63.3205 14.88C66.0725 14.88 68.6965 16.672 69.5925 19.424C69.6565 19.616 69.7206 19.808 69.7206 20Z"/>
<path d="M97.243 19.936C97.243 18.784 98.203 18.08 99.163 18.08C99.419 18.08 99.739 18.144 99.995 18.272C104.539 20.512 104.347 20.64 109.403 20.64C110.427 20.64 111.323 21.536 111.323 22.56C111.323 23.584 110.427 24.48 109.403 24.48C108.187 24.48 107.099 24.48 106.267 24.416C106.715 25.568 106.843 26.592 106.843 27.68C106.843 34.144 101.147 37.92 95.323 37.92C90.971 37.92 86.235 35.808 84.827 31.392C82.395 33.824 79.323 36 75.483 36C74.459 36 73.563 35.104 73.563 34.08C73.563 33.056 74.459 32.16 75.483 32.16C80.411 32.16 85.211 24.928 87.387 22.048C87.707 21.6 88.347 21.28 88.987 21.28C90.075 21.28 90.843 22.24 90.843 23.2C90.843 23.584 90.715 23.968 90.523 24.288C89.179 26.272 88.2831 27.872 88.2831 28.96C88.2831 31.904 91.355 34.08 95.323 34.08C99.739 34.08 103.003 31.456 103.003 27.68C103.003 25.632 102.427 24.096 98.203 21.664C97.691 21.344 97.243 20.64 97.243 19.936Z"/>
<path d="M118.381 5.91999C119.469 5.91999 120.301 6.75199 120.301 7.83999C120.301 9.11999 119.661 11.04 118.381 11.04C117.293 11.04 116.461 10.208 116.461 9.11999C116.461 7.83999 117.101 5.91999 118.381 5.91999ZM109.421 20.64C114.349 20.64 117.357 18.72 118.381 18.72C119.213 18.72 120.045 19.296 120.237 20.128C122.221 27.296 124.141 37.6 124.141 44.96C124.141 51.68 120.877 57.76 115.821 57.76C112.621 57.76 110.061 55.2 110.061 52C110.061 50.976 110.957 50.08 111.981 50.08C113.005 50.08 113.901 50.976 113.901 52C113.901 53.152 114.669 53.92 115.821 53.92C117.165 53.92 120.301 51.04 120.301 44.96C120.301 38.88 118.765 29.984 117.037 23.136C115.309 23.712 112.429 24.48 109.421 24.48C108.397 24.48 107.501 23.584 107.501 22.56C107.501 21.536 108.397 20.64 109.421 20.64Z"/>
<path d="M141.421 7.19999C141.421 6.11199 142.253 5.27999 143.341 5.27999C144.621 5.27999 146.541 5.91999 146.541 7.19999C146.541 8.28799 145.709 9.11999 144.621 9.11999C143.341 9.11999 141.421 8.47999 141.421 7.19999ZM152.301 34.08C152.301 35.104 151.405 36 150.381 36C142.957 36 140.205 29.856 139.629 23.968C132.077 28.704 113.901 41.696 113.901 52C113.901 53.024 113.005 53.92 111.981 53.92C110.957 53.92 110.061 53.024 110.061 52C110.061 35.616 140.141 19.168 140.525 18.976C140.717 18.848 141.101 18.72 141.421 18.72C142.445 18.72 143.341 19.616 143.341 20.64C143.341 27.68 145.133 32.16 150.381 32.16C151.405 32.16 152.301 33.056 152.301 34.08Z"/>
<path d="M179.158 20C179.158 20.96 178.39 21.92 177.238 21.92C176.406 21.92 175.702 21.344 175.446 20.576C175.062 19.488 173.846 18.72 172.758 18.72C168.278 18.72 163.158 24.224 163.158 28.96C163.158 31.136 164.118 32.16 165.718 32.16C169.814 32.16 175.062 28.32 176.726 23.264C176.982 22.496 177.686 21.92 178.518 21.92C179.542 21.92 180.438 22.816 180.438 23.84C180.438 28.448 181.782 32.16 184.918 32.16C185.942 32.16 186.838 33.056 186.838 34.08C186.838 35.104 185.942 36 184.918 36C180.63 36 178.39 32.8 177.43 29.728C174.422 33.44 170.07 36 165.718 36C162.774 36 160.79 34.272 159.894 31.968C157.398 34.336 153.942 36 150.358 36C149.334 36 148.438 35.104 148.438 34.08C148.438 33.056 149.334 32.16 150.358 32.16C154.326 32.16 158.614 28.576 159.83 25.568C161.494 19.936 166.87 14.88 172.758 14.88C175.51 14.88 178.134 16.672 179.03 19.424C179.094 19.616 179.158 19.808 179.158 20Z"/>
<path d="M204.121 20C203.161 20 202.201 19.168 202.201 18.08C202.201 15.584 206.745 14.88 208.601 14.88C213.785 14.88 217.561 18.656 217.561 23.84C217.561 30.816 211.481 36 204.761 36C200.537 36 197.081 33.632 195.737 29.92C193.305 32.864 189.785 36 184.921 36C183.897 36 183.001 35.104 183.001 34.08C183.001 33.056 183.897 32.16 184.921 32.16C190.425 32.16 194.649 25.056 195.993 22.368C196.313 21.728 197.017 21.28 197.721 21.28C198.873 21.28 199.641 22.24 199.641 23.2C199.641 23.456 199.577 23.648 199.513 23.904C199.129 24.864 199.001 26.016 199.001 26.4C199.001 29.856 201.305 32.16 204.761 32.16C209.561 32.16 213.721 28.384 213.721 23.84C213.721 20.704 211.737 18.72 208.601 18.72C207.321 18.72 206.105 19.04 205.209 19.68C204.889 19.936 204.505 20 204.121 20Z"/>
<path d="M271.692 25.888C267.852 26.912 265.548 28.64 265.548 30.24C265.548 31.2 266.572 32.16 268.748 32.16C271.116 32.16 273.228 30.176 273.228 28.32C273.228 27.552 272.652 26.656 271.692 25.888ZM267.02 23.456C261.004 21.088 252.748 19.04 252.748 12.32C252.748 5.40799 261.772 0.799988 267.468 0.799988C271.436 0.799988 275.148 3.35999 275.148 7.83999C275.148 12.256 271.372 14.304 271.244 14.368C270.924 14.496 270.668 14.56 270.348 14.56C269.388 14.56 268.428 13.792 268.428 12.64C268.428 10.336 271.308 11.104 271.308 7.83999C271.308 5.91999 269.9 4.63999 267.468 4.63999C262.924 4.63999 256.588 8.99199 256.588 12.32C256.588 14.496 259.596 16.864 265.484 18.848C268.044 19.68 270.412 20.576 272.46 21.792C276.364 20.96 280.844 20.64 285.388 20.64C286.412 20.64 287.308 21.536 287.308 22.56C287.308 23.584 286.412 24.48 285.388 24.48C282.188 24.48 278.988 24.672 276.108 25.056C276.684 26.016 277.068 27.168 277.068 28.32C277.068 32.864 272.78 36 268.748 36C265.804 36 261.708 34.4 261.708 30.24C261.708 26.976 264.204 24.8 267.02 23.456Z"/>
<path d="M298.222 19.36C297.262 19.36 296.238 18.656 296.238 17.44C296.238 16.8 296.622 16.16 297.262 15.776C297.71 15.584 301.742 13.6 310.318 13.6C316.014 13.6 321.07 16.16 321.838 23.648C321.966 24.928 322.414 30.24 323.118 30.24C324.206 30.24 325.614 28 327.79 23.648C329.39 20.448 331.246 14.88 335.918 14.88C341.422 14.88 341.614 21.92 341.998 25.184C342.638 30.496 343.342 32.16 346.158 32.16C347.182 32.16 348.078 33.056 348.078 34.08C348.078 35.104 347.182 36 346.158 36C340.014 36 338.798 30.624 338.158 25.696C337.518 20.768 336.814 18.72 335.918 18.72C334.83 18.72 333.358 21.088 331.246 25.312C329.582 28.64 327.79 34.08 323.118 34.08C319.918 34.08 318.894 31.072 318.638 29.28C318.446 28 318.126 25.376 317.998 24.032C317.486 18.72 314.862 17.44 310.318 17.44C309.23 17.44 308.27 17.44 307.374 17.504C309.294 19.552 310.318 22.304 310.318 25.12C310.318 31.904 304.942 37.28 298.158 37.28C292.654 37.28 288.558 33.184 288.558 27.68C288.558 26.464 288.75 25.312 288.942 24.48H285.358C284.334 24.48 283.438 23.584 283.438 22.56C283.438 21.536 284.334 20.64 285.358 20.64H291.758C292.846 20.64 293.678 21.6 293.678 22.56C293.678 24.16 292.398 24.096 292.398 27.68C292.398 31.136 294.702 33.44 298.158 33.44C302.894 33.44 306.478 29.856 306.478 25.12C306.478 21.664 304.11 18.72 301.358 18.72C299.31 18.72 299.374 19.36 298.222 19.36Z"/>
<path d="M361.531 52C361.531 53.216 362.235 53.92 363.451 53.92C365.499 53.92 367.291 51.68 367.291 48.8C367.291 46.24 366.651 44 365.691 42.016C363.195 45.664 361.531 49.568 361.531 52ZM366.011 20C366.011 19.552 365.371 18.72 364.091 18.72C360.635 18.72 358.331 21.024 358.331 24.48C358.331 25.568 358.651 26.656 359.227 27.744C363.451 25.184 366.011 22.112 366.011 20ZM363.387 38.56C361.659 36.448 359.739 34.784 358.011 32.736C353.915 34.72 349.563 36 346.171 36C345.147 36 344.251 35.104 344.251 34.08C344.251 33.056 345.147 32.16 346.171 32.16C348.475 32.16 352.251 31.2 355.835 29.536C355.067 28 354.491 26.336 354.491 24.48C354.491 18.976 358.587 14.88 364.091 14.88C366.651 14.88 369.851 16.608 369.851 20C369.851 24.544 365.755 28.256 361.467 30.88C362.811 32.416 364.411 33.824 365.819 35.488C367.163 33.952 368.507 32.48 369.851 31.328C370.235 31.008 370.683 30.88 371.131 30.88C372.155 30.88 373.051 31.712 373.051 32.8C373.051 33.312 372.859 33.888 372.411 34.272C371.067 35.424 369.595 36.96 368.187 38.688C369.851 41.44 371.131 44.768 371.131 48.8C371.131 52.96 368.443 57.76 363.451 57.76C360.187 57.76 357.691 55.264 357.691 52C357.691 47.712 360.315 42.848 363.387 38.56Z"/>
</mask>
<path d="M23.6005 0.799988C24.7525 0.799988 25.5205 1.75999 25.5205 2.71999C25.5205 2.97599 25.4565 3.29599 25.3285 3.55199C24.9445 4.31999 24.2405 7.39199 24.2405 11.68C24.2405 15.84 25.5205 20.96 25.5205 25.76C25.5205 33.504 15.9205 36 10.1605 36C6.83255 36 0.560547 35.168 0.560547 29.6C0.560547 25.504 3.95255 23.52 4.08055 23.456C4.40055 23.264 4.72055 23.2 5.04055 23.2C6.00055 23.2 6.96055 24.032 6.96055 25.12C6.96055 27.232 4.40055 26.72 4.40055 29.6C4.40055 31.072 6.44855 32.16 10.1605 32.16C15.9205 32.16 21.6805 29.536 21.6805 25.76C21.6805 21.6 20.4005 16.48 20.4005 11.68C20.4005 7.00799 20.9765 3.67999 21.8725 1.88799C22.1925 1.24799 22.8965 0.799988 23.6005 0.799988Z" fill="#1B0B49"/>
<path d="M37.7105 2.71999C38.9905 2.71999 39.6305 4.63999 39.6305 5.91999C39.6305 7.00799 38.7985 7.83999 37.7105 7.83999C36.6225 7.83999 35.7905 5.72799 35.7905 4.63999C35.7905 3.55199 36.6225 2.71999 37.7105 2.71999ZM33.8705 16.8C35.0225 16.8 35.7905 17.76 35.7905 18.72C35.7905 18.848 35.7265 18.976 35.7265 19.104C35.2785 21.472 35.1505 23.968 35.1505 25.12C35.1505 30.368 36.3665 32.16 40.9105 32.16C41.9345 32.16 42.8305 33.056 42.8305 34.08C42.8305 35.104 41.9345 36 40.9105 36C33.9345 36 31.3105 31.392 31.3105 25.12C31.3105 23.712 31.4385 21.088 32.0145 18.336C32.2065 17.44 32.9745 16.8 33.8705 16.8Z" fill="#1B0B49"/>
<path d="M69.7206 20C69.7206 20.96 68.9525 21.92 67.8005 21.92C66.9685 21.92 66.2645 21.344 66.0085 20.576C65.6245 19.488 64.4085 18.72 63.3205 18.72C58.8405 18.72 53.7205 24.224 53.7205 28.96C53.7205 31.136 54.6805 32.16 56.2805 32.16C60.3765 32.16 65.6245 28.32 67.2886 23.264C67.5445 22.496 68.2486 21.92 69.0806 21.92C70.1046 21.92 71.0005 22.816 71.0005 23.84C71.0005 28.448 72.3446 32.16 75.4806 32.16C76.5046 32.16 77.4006 33.056 77.4006 34.08C77.4006 35.104 76.5046 36 75.4806 36C71.1926 36 68.9525 32.8 67.9925 29.728C64.9845 33.44 60.6325 36 56.2805 36C53.3365 36 51.3525 34.272 50.4565 31.968C47.9605 34.336 44.5045 36 40.9205 36C39.8965 36 39.0005 35.104 39.0005 34.08C39.0005 33.056 39.8965 32.16 40.9205 32.16C44.8885 32.16 49.1765 28.576 50.3925 25.568C52.0565 19.936 57.4325 14.88 63.3205 14.88C66.0725 14.88 68.6965 16.672 69.5925 19.424C69.6565 19.616 69.7206 19.808 69.7206 20Z" fill="#1B0B49"/>
<path d="M97.243 19.936C97.243 18.784 98.203 18.08 99.163 18.08C99.419 18.08 99.739 18.144 99.995 18.272C104.539 20.512 104.347 20.64 109.403 20.64C110.427 20.64 111.323 21.536 111.323 22.56C111.323 23.584 110.427 24.48 109.403 24.48C108.187 24.48 107.099 24.48 106.267 24.416C106.715 25.568 106.843 26.592 106.843 27.68C106.843 34.144 101.147 37.92 95.323 37.92C90.971 37.92 86.235 35.808 84.827 31.392C82.395 33.824 79.323 36 75.483 36C74.459 36 73.563 35.104 73.563 34.08C73.563 33.056 74.459 32.16 75.483 32.16C80.411 32.16 85.211 24.928 87.387 22.048C87.707 21.6 88.347 21.28 88.987 21.28C90.075 21.28 90.843 22.24 90.843 23.2C90.843 23.584 90.715 23.968 90.523 24.288C89.179 26.272 88.2831 27.872 88.2831 28.96C88.2831 31.904 91.355 34.08 95.323 34.08C99.739 34.08 103.003 31.456 103.003 27.68C103.003 25.632 102.427 24.096 98.203 21.664C97.691 21.344 97.243 20.64 97.243 19.936Z" fill="#1B0B49"/>
<path d="M118.381 5.91999C119.469 5.91999 120.301 6.75199 120.301 7.83999C120.301 9.11999 119.661 11.04 118.381 11.04C117.293 11.04 116.461 10.208 116.461 9.11999C116.461 7.83999 117.101 5.91999 118.381 5.91999ZM109.421 20.64C114.349 20.64 117.357 18.72 118.381 18.72C119.213 18.72 120.045 19.296 120.237 20.128C122.221 27.296 124.141 37.6 124.141 44.96C124.141 51.68 120.877 57.76 115.821 57.76C112.621 57.76 110.061 55.2 110.061 52C110.061 50.976 110.957 50.08 111.981 50.08C113.005 50.08 113.901 50.976 113.901 52C113.901 53.152 114.669 53.92 115.821 53.92C117.165 53.92 120.301 51.04 120.301 44.96C120.301 38.88 118.765 29.984 117.037 23.136C115.309 23.712 112.429 24.48 109.421 24.48C108.397 24.48 107.501 23.584 107.501 22.56C107.501 21.536 108.397 20.64 109.421 20.64Z" fill="#1B0B49"/>
<path d="M141.421 7.19999C141.421 6.11199 142.253 5.27999 143.341 5.27999C144.621 5.27999 146.541 5.91999 146.541 7.19999C146.541 8.28799 145.709 9.11999 144.621 9.11999C143.341 9.11999 141.421 8.47999 141.421 7.19999ZM152.301 34.08C152.301 35.104 151.405 36 150.381 36C142.957 36 140.205 29.856 139.629 23.968C132.077 28.704 113.901 41.696 113.901 52C113.901 53.024 113.005 53.92 111.981 53.92C110.957 53.92 110.061 53.024 110.061 52C110.061 35.616 140.141 19.168 140.525 18.976C140.717 18.848 141.101 18.72 141.421 18.72C142.445 18.72 143.341 19.616 143.341 20.64C143.341 27.68 145.133 32.16 150.381 32.16C151.405 32.16 152.301 33.056 152.301 34.08Z" fill="#1B0B49"/>
<path d="M179.158 20C179.158 20.96 178.39 21.92 177.238 21.92C176.406 21.92 175.702 21.344 175.446 20.576C175.062 19.488 173.846 18.72 172.758 18.72C168.278 18.72 163.158 24.224 163.158 28.96C163.158 31.136 164.118 32.16 165.718 32.16C169.814 32.16 175.062 28.32 176.726 23.264C176.982 22.496 177.686 21.92 178.518 21.92C179.542 21.92 180.438 22.816 180.438 23.84C180.438 28.448 181.782 32.16 184.918 32.16C185.942 32.16 186.838 33.056 186.838 34.08C186.838 35.104 185.942 36 184.918 36C180.63 36 178.39 32.8 177.43 29.728C174.422 33.44 170.07 36 165.718 36C162.774 36 160.79 34.272 159.894 31.968C157.398 34.336 153.942 36 150.358 36C149.334 36 148.438 35.104 148.438 34.08C148.438 33.056 149.334 32.16 150.358 32.16C154.326 32.16 158.614 28.576 159.83 25.568C161.494 19.936 166.87 14.88 172.758 14.88C175.51 14.88 178.134 16.672 179.03 19.424C179.094 19.616 179.158 19.808 179.158 20Z" fill="#1B0B49"/>
<path d="M204.121 20C203.161 20 202.201 19.168 202.201 18.08C202.201 15.584 206.745 14.88 208.601 14.88C213.785 14.88 217.561 18.656 217.561 23.84C217.561 30.816 211.481 36 204.761 36C200.537 36 197.081 33.632 195.737 29.92C193.305 32.864 189.785 36 184.921 36C183.897 36 183.001 35.104 183.001 34.08C183.001 33.056 183.897 32.16 184.921 32.16C190.425 32.16 194.649 25.056 195.993 22.368C196.313 21.728 197.017 21.28 197.721 21.28C198.873 21.28 199.641 22.24 199.641 23.2C199.641 23.456 199.577 23.648 199.513 23.904C199.129 24.864 199.001 26.016 199.001 26.4C199.001 29.856 201.305 32.16 204.761 32.16C209.561 32.16 213.721 28.384 213.721 23.84C213.721 20.704 211.737 18.72 208.601 18.72C207.321 18.72 206.105 19.04 205.209 19.68C204.889 19.936 204.505 20 204.121 20Z" fill="#1B0B49"/>
<path d="M271.692 25.888C267.852 26.912 265.548 28.64 265.548 30.24C265.548 31.2 266.572 32.16 268.748 32.16C271.116 32.16 273.228 30.176 273.228 28.32C273.228 27.552 272.652 26.656 271.692 25.888ZM267.02 23.456C261.004 21.088 252.748 19.04 252.748 12.32C252.748 5.40799 261.772 0.799988 267.468 0.799988C271.436 0.799988 275.148 3.35999 275.148 7.83999C275.148 12.256 271.372 14.304 271.244 14.368C270.924 14.496 270.668 14.56 270.348 14.56C269.388 14.56 268.428 13.792 268.428 12.64C268.428 10.336 271.308 11.104 271.308 7.83999C271.308 5.91999 269.9 4.63999 267.468 4.63999C262.924 4.63999 256.588 8.99199 256.588 12.32C256.588 14.496 259.596 16.864 265.484 18.848C268.044 19.68 270.412 20.576 272.46 21.792C276.364 20.96 280.844 20.64 285.388 20.64C286.412 20.64 287.308 21.536 287.308 22.56C287.308 23.584 286.412 24.48 285.388 24.48C282.188 24.48 278.988 24.672 276.108 25.056C276.684 26.016 277.068 27.168 277.068 28.32C277.068 32.864 272.78 36 268.748 36C265.804 36 261.708 34.4 261.708 30.24C261.708 26.976 264.204 24.8 267.02 23.456Z" fill="#1B0B49"/>
<path d="M298.222 19.36C297.262 19.36 296.238 18.656 296.238 17.44C296.238 16.8 296.622 16.16 297.262 15.776C297.71 15.584 301.742 13.6 310.318 13.6C316.014 13.6 321.07 16.16 321.838 23.648C321.966 24.928 322.414 30.24 323.118 30.24C324.206 30.24 325.614 28 327.79 23.648C329.39 20.448 331.246 14.88 335.918 14.88C341.422 14.88 341.614 21.92 341.998 25.184C342.638 30.496 343.342 32.16 346.158 32.16C347.182 32.16 348.078 33.056 348.078 34.08C348.078 35.104 347.182 36 346.158 36C340.014 36 338.798 30.624 338.158 25.696C337.518 20.768 336.814 18.72 335.918 18.72C334.83 18.72 333.358 21.088 331.246 25.312C329.582 28.64 327.79 34.08 323.118 34.08C319.918 34.08 318.894 31.072 318.638 29.28C318.446 28 318.126 25.376 317.998 24.032C317.486 18.72 314.862 17.44 310.318 17.44C309.23 17.44 308.27 17.44 307.374 17.504C309.294 19.552 310.318 22.304 310.318 25.12C310.318 31.904 304.942 37.28 298.158 37.28C292.654 37.28 288.558 33.184 288.558 27.68C288.558 26.464 288.75 25.312 288.942 24.48H285.358C284.334 24.48 283.438 23.584 283.438 22.56C283.438 21.536 284.334 20.64 285.358 20.64H291.758C292.846 20.64 293.678 21.6 293.678 22.56C293.678 24.16 292.398 24.096 292.398 27.68C292.398 31.136 294.702 33.44 298.158 33.44C302.894 33.44 306.478 29.856 306.478 25.12C306.478 21.664 304.11 18.72 301.358 18.72C299.31 18.72 299.374 19.36 298.222 19.36Z" fill="#1B0B49"/>
<path d="M361.531 52C361.531 53.216 362.235 53.92 363.451 53.92C365.499 53.92 367.291 51.68 367.291 48.8C367.291 46.24 366.651 44 365.691 42.016C363.195 45.664 361.531 49.568 361.531 52ZM366.011 20C366.011 19.552 365.371 18.72 364.091 18.72C360.635 18.72 358.331 21.024 358.331 24.48C358.331 25.568 358.651 26.656 359.227 27.744C363.451 25.184 366.011 22.112 366.011 20ZM363.387 38.56C361.659 36.448 359.739 34.784 358.011 32.736C353.915 34.72 349.563 36 346.171 36C345.147 36 344.251 35.104 344.251 34.08C344.251 33.056 345.147 32.16 346.171 32.16C348.475 32.16 352.251 31.2 355.835 29.536C355.067 28 354.491 26.336 354.491 24.48C354.491 18.976 358.587 14.88 364.091 14.88C366.651 14.88 369.851 16.608 369.851 20C369.851 24.544 365.755 28.256 361.467 30.88C362.811 32.416 364.411 33.824 365.819 35.488C367.163 33.952 368.507 32.48 369.851 31.328C370.235 31.008 370.683 30.88 371.131 30.88C372.155 30.88 373.051 31.712 373.051 32.8C373.051 33.312 372.859 33.888 372.411 34.272C371.067 35.424 369.595 36.96 368.187 38.688C369.851 41.44 371.131 44.768 371.131 48.8C371.131 52.96 368.443 57.76 363.451 57.76C360.187 57.76 357.691 55.264 357.691 52C357.691 47.712 360.315 42.848 363.387 38.56Z" fill="#1B0B49"/>
<path d="M25.3285 3.55199L24.8813 3.32838L24.8813 3.32838L25.3285 3.55199ZM4.08055 23.456L4.30415 23.9032L4.32133 23.8946L4.3378 23.8847L4.08055 23.456ZM21.8725 1.88799L21.4253 1.66438L21.4253 1.66438L21.8725 1.88799ZM35.7265 19.104L36.2178 19.1969L36.2265 19.1509V19.104H35.7265ZM32.0145 18.336L31.5256 18.2312L31.5252 18.2336L32.0145 18.336ZM66.0085 20.576L66.483 20.4179L66.48 20.4096L66.0085 20.576ZM67.2886 23.264L66.8142 23.1059L66.8136 23.1077L67.2886 23.264ZM67.9925 29.728L68.4698 29.5789L68.1915 28.6883L67.6041 29.4132L67.9925 29.728ZM50.4565 31.968L50.9225 31.7868L50.6526 31.0927L50.1124 31.6053L50.4565 31.968ZM50.3925 25.568L50.8561 25.7554L50.8652 25.7329L50.8721 25.7097L50.3925 25.568ZM69.5925 19.424L69.1171 19.5788L69.1182 19.5821L69.5925 19.424ZM99.995 18.272L99.7714 18.7192L99.774 18.7205L99.995 18.272ZM106.267 24.416L106.305 23.9175L105.513 23.8565L105.801 24.5972L106.267 24.416ZM84.827 31.392L85.3034 31.2401L85.054 30.4579L84.4735 31.0384L84.827 31.392ZM87.387 22.048L87.7861 22.3495L87.7939 22.3386L87.387 22.048ZM90.523 24.288L90.937 24.5684L90.9447 24.557L90.9518 24.5452L90.523 24.288ZM98.203 21.664L97.938 22.088L97.9457 22.0928L97.9536 22.0973L98.203 21.664ZM120.237 20.128L119.749 20.2404L119.752 20.2509L119.755 20.2614L120.237 20.128ZM117.037 23.136L117.521 23.0137L117.39 22.4913L116.878 22.6616L117.037 23.136ZM139.629 23.968L140.126 23.9193L140.048 23.1151L139.363 23.5444L139.629 23.968ZM140.525 18.976L140.748 19.4232L140.776 19.4093L140.802 19.392L140.525 18.976ZM175.446 20.576L175.92 20.4179L175.918 20.4096L175.446 20.576ZM176.726 23.264L176.252 23.1059L176.251 23.1077L176.726 23.264ZM177.43 29.728L177.907 29.5789L177.629 28.6883L177.042 29.4132L177.43 29.728ZM159.894 31.968L160.36 31.7868L160.09 31.0927L159.55 31.6053L159.894 31.968ZM159.83 25.568L160.294 25.7554L160.303 25.7329L160.31 25.7097L159.83 25.568ZM179.03 19.424L178.555 19.5788L178.556 19.5821L179.03 19.424ZM195.737 29.92L196.207 29.7498L195.909 28.9266L195.351 29.6015L195.737 29.92ZM195.993 22.368L195.545 22.1444L195.545 22.1444L195.993 22.368ZM199.513 23.904L199.977 24.0897L199.989 24.0582L199.998 24.0253L199.513 23.904ZM205.209 19.68L204.918 19.2731L204.907 19.281L204.896 19.2896L205.209 19.68ZM271.692 25.888L272.004 25.4976L271.807 25.3398L271.563 25.4049L271.692 25.888ZM267.02 23.456L267.235 23.9072L268.273 23.4119L267.203 22.9907L267.02 23.456ZM271.244 14.368L271.43 14.8322L271.449 14.8245L271.468 14.8152L271.244 14.368ZM265.484 18.848L265.324 19.3218L265.329 19.3235L265.484 18.848ZM272.46 21.792L272.205 22.2219L272.373 22.3218L272.564 22.281L272.46 21.792ZM276.108 25.056L276.042 24.5604L275.288 24.6609L275.679 25.3132L276.108 25.056ZM297.262 15.776L297.065 15.3164L297.034 15.3298L297.005 15.3472L297.262 15.776ZM321.838 23.648L322.336 23.5982L322.335 23.597L321.838 23.648ZM327.79 23.648L327.343 23.4244L327.343 23.4244L327.79 23.648ZM341.998 25.184L341.501 25.2424L341.502 25.2438L341.998 25.184ZM338.158 25.696L337.662 25.7604L337.662 25.7604L338.158 25.696ZM331.246 25.312L331.693 25.5356L331.693 25.5356L331.246 25.312ZM318.638 29.28L319.133 29.2093L319.133 29.2058L318.638 29.28ZM317.998 24.032L318.496 23.9846L318.496 23.984L317.998 24.032ZM307.374 17.504L307.338 17.0053L306.291 17.0801L307.009 17.846L307.374 17.504ZM288.942 24.48L289.429 24.5924L289.571 23.98H288.942V24.48ZM365.691 42.016L366.141 41.7982L365.765 41.0218L365.278 41.7336L365.691 42.016ZM359.227 27.744L358.785 27.9779L359.033 28.4462L359.486 28.1716L359.227 27.744ZM363.387 38.56L363.793 38.8512L364.016 38.5398L363.774 38.2434L363.387 38.56ZM358.011 32.736L358.393 32.4136L358.142 32.1167L357.793 32.286L358.011 32.736ZM355.835 29.536L356.045 29.9895L356.512 29.7727L356.282 29.3124L355.835 29.536ZM361.467 30.88L361.206 30.4535L360.7 30.763L361.09 31.2092L361.467 30.88ZM365.819 35.488L365.437 35.811L365.812 36.2545L366.195 35.8172L365.819 35.488ZM369.851 31.328L369.53 30.9438L369.525 30.9484L369.851 31.328ZM372.411 34.272L372.085 33.8924L372.085 33.8924L372.411 34.272ZM368.187 38.688L367.799 38.3722L367.576 38.6452L367.759 38.9467L368.187 38.688ZM23.6005 1.29999C24.4445 1.29999 25.0205 2.00308 25.0205 2.71999H26.0205C26.0205 1.5169 25.0606 0.299988 23.6005 0.299988V1.29999ZM25.0205 2.71999C25.0205 2.90763 24.9707 3.14964 24.8813 3.32838L25.7758 3.77559C25.9424 3.44233 26.0205 3.04435 26.0205 2.71999H25.0205ZM24.8813 3.32838C24.6525 3.78614 24.3716 4.81219 24.1468 6.21699C23.9187 7.64296 23.7405 9.50937 23.7405 11.68H24.7405C24.7405 9.5626 24.9144 7.74902 25.1343 6.37498C25.3575 4.97979 25.6206 4.08584 25.7758 3.77559L24.8813 3.32838ZM23.7405 11.68C23.7405 13.8004 24.0664 16.1572 24.3849 18.5461C24.7055 20.9502 25.0205 23.3982 25.0205 25.76H26.0205C26.0205 23.3217 25.6956 20.8097 25.3762 18.4139C25.0547 16.0028 24.7405 13.7196 24.7405 11.68H23.7405ZM25.0205 25.76C25.0205 29.377 22.7954 31.7966 19.7733 33.3386C16.7415 34.8856 12.9843 35.5 10.1605 35.5V36.5C13.0968 36.5 17.0196 35.8664 20.2278 34.2294C23.4457 32.5874 26.0205 29.8869 26.0205 25.76H25.0205ZM10.1605 35.5C8.52258 35.5 6.20725 35.293 4.31986 34.433C3.38175 34.0055 2.57028 33.4262 1.99383 32.6507C1.42189 31.8813 1.06055 30.8914 1.06055 29.6H0.0605469C0.0605469 31.0926 0.483208 32.2947 1.19126 33.2473C1.89482 34.1938 2.85934 34.8664 3.90523 35.343C5.98585 36.291 8.47052 36.5 10.1605 36.5V35.5ZM1.06055 29.6C1.06055 27.7005 1.84449 26.2912 2.65344 25.3399C3.05854 24.8635 3.4677 24.5051 3.7818 24.263C4.10213 24.0161 4.31026 23.9001 4.30415 23.9032L3.85694 23.0088C3.73781 23.0683 2.80277 23.6207 1.89165 24.6921C0.972605 25.7728 0.0605469 27.4035 0.0605469 29.6H1.06055ZM4.3378 23.8847C4.5658 23.7479 4.79292 23.7 5.04055 23.7V22.7C4.64817 22.7 4.23529 22.78 3.8233 23.0272L4.3378 23.8847ZM5.04055 23.7C5.74607 23.7 6.46055 24.3293 6.46055 25.12H7.46055C7.46055 23.7347 6.25502 22.7 5.04055 22.7V23.7ZM6.46055 25.12C6.46055 25.5297 6.34232 25.7826 6.17322 25.9898C5.9795 26.2271 5.72429 26.4055 5.37426 26.6768C5.04513 26.9319 4.66434 27.2493 4.37472 27.7199C4.0798 28.1992 3.90055 28.8005 3.90055 29.6H4.90055C4.90055 28.9595 5.04129 28.5448 5.22638 28.244C5.41675 27.9347 5.67596 27.7081 5.98683 27.4672C6.27681 27.2425 6.66159 26.9729 6.94788 26.6222C7.25877 26.2413 7.46055 25.7663 7.46055 25.12H6.46055ZM3.90055 29.6C3.90055 30.6116 4.6132 31.388 5.6769 31.885C6.74429 32.3837 8.26543 32.66 10.1605 32.66V31.66C8.34367 31.66 6.98481 31.3923 6.10019 30.979C5.21189 30.564 4.90055 30.0604 4.90055 29.6H3.90055ZM10.1605 32.66C13.108 32.66 16.0698 31.9901 18.312 30.8192C20.5324 29.6596 22.1805 27.9283 22.1805 25.76H21.1805C21.1805 27.3676 19.9487 28.8363 17.8491 29.9328C15.7713 31.0178 12.9731 31.66 10.1605 31.66V32.66ZM22.1805 25.76C22.1805 23.6396 21.8547 21.2828 21.5362 18.8939C21.2156 16.4897 20.9005 14.0417 20.9005 11.68H19.9005C19.9005 14.1182 20.2255 16.6302 20.5449 19.0261C20.8664 21.4372 21.1805 23.7204 21.1805 25.76H22.1805ZM20.9005 11.68C20.9005 7.02434 21.4782 3.79474 22.3198 2.11159L21.4253 1.66438C20.4749 3.56524 19.9005 6.99163 19.9005 11.68H20.9005ZM22.3198 2.11159C22.5585 1.6341 23.0935 1.29999 23.6005 1.29999V0.299988C22.6996 0.299988 21.8266 0.861869 21.4253 1.66438L22.3198 2.11159ZM37.7105 3.21999C38.0635 3.21999 38.4131 3.48308 38.7033 4.06359C38.9847 4.62633 39.1305 5.34835 39.1305 5.91999H40.1305C40.1305 5.21163 39.9564 4.33364 39.5978 3.61638C39.248 2.91689 38.6376 2.21999 37.7105 2.21999V3.21999ZM39.1305 5.91999C39.1305 6.73185 38.5224 7.33999 37.7105 7.33999V8.33999C39.0747 8.33999 40.1305 7.28413 40.1305 5.91999H39.1305ZM37.7105 7.33999C37.6083 7.33999 37.4683 7.29085 37.2922 7.12699C37.1168 6.96377 36.9423 6.71879 36.7865 6.41798C36.4709 5.80883 36.2905 5.08747 36.2905 4.63999H35.2905C35.2905 5.28051 35.5262 6.15914 35.8986 6.87799C36.0868 7.24119 36.3243 7.59221 36.6109 7.85899C36.8968 8.12512 37.2688 8.33999 37.7105 8.33999V7.33999ZM36.2905 4.63999C36.2905 3.82813 36.8987 3.21999 37.7105 3.21999V2.21999C36.3464 2.21999 35.2905 3.27584 35.2905 4.63999H36.2905ZM33.8705 17.3C34.7145 17.3 35.2905 18.0031 35.2905 18.72H36.2905C36.2905 17.5169 35.3306 16.3 33.8705 16.3V17.3ZM35.2905 18.72C35.2905 18.7117 35.2924 18.715 35.2735 18.7907C35.2604 18.843 35.2265 18.9677 35.2265 19.104H36.2265C36.2265 19.1123 36.2247 19.109 36.2436 19.0333C36.2567 18.981 36.2905 18.8563 36.2905 18.72H35.2905ZM35.2353 19.011C34.7802 21.4165 34.6505 23.9446 34.6505 25.12H35.6505C35.6505 23.9914 35.7769 21.5275 36.2178 19.1969L35.2353 19.011ZM34.6505 25.12C34.6505 27.7451 34.9456 29.6663 35.9342 30.9179C36.9527 32.2074 38.595 32.66 40.9105 32.66V31.66C38.6821 31.66 37.4444 31.2165 36.7189 30.2981C35.9635 29.3416 35.6505 27.7429 35.6505 25.12H34.6505ZM40.9105 32.66C41.6584 32.66 42.3305 33.3321 42.3305 34.08H43.3305C43.3305 32.7798 42.2107 31.66 40.9105 31.66V32.66ZM42.3305 34.08C42.3305 34.8278 41.6584 35.5 40.9105 35.5V36.5C42.2107 36.5 43.3305 35.3801 43.3305 34.08H42.3305ZM40.9105 35.5C37.5419 35.5 35.3011 34.3939 33.887 32.6022C32.4562 30.7894 31.8105 28.1981 31.8105 25.12H30.8105C30.8105 28.3139 31.4769 31.1626 33.1021 33.2218C34.744 35.3021 37.3032 36.5 40.9105 36.5V35.5ZM31.8105 25.12C31.8105 23.7357 31.9369 21.1476 32.5039 18.4384L31.5252 18.2336C30.9402 21.0283 30.8105 23.6883 30.8105 25.12H31.8105ZM32.5034 18.4408C32.6483 17.7647 33.2209 17.3 33.8705 17.3V16.3C32.7282 16.3 31.7648 17.1152 31.5256 18.2312L32.5034 18.4408ZM69.2206 20C69.2206 20.7169 68.6445 21.42 67.8005 21.42V22.42C69.2606 22.42 70.2206 21.2031 70.2206 20H69.2206ZM67.8005 21.42C67.2088 21.42 66.6791 21.0065 66.4829 20.4179L65.5342 20.7341C65.85 21.6814 66.7283 22.42 67.8005 22.42V21.42ZM66.48 20.4096C66.0191 19.1035 64.6006 18.22 63.3205 18.22V19.22C64.2165 19.22 65.23 19.8725 65.537 20.7424L66.48 20.4096ZM63.3205 18.22C60.8899 18.22 58.3671 19.6991 56.4753 21.7225C54.5801 23.7496 53.2205 26.4257 53.2205 28.96H54.2205C54.2205 26.7583 55.421 24.3144 57.2058 22.4055C58.994 20.4928 61.2712 19.22 63.3205 19.22V18.22ZM53.2205 28.96C53.2205 30.1116 53.4733 31.0444 54.0164 31.6961C54.5723 32.3631 55.3682 32.66 56.2805 32.66V31.66C55.5929 31.66 55.1088 31.4449 54.7847 31.0559C54.4478 30.6516 54.2205 29.9843 54.2205 28.96H53.2205ZM56.2805 32.66C58.4726 32.66 60.9142 31.6395 63.0049 30.0016C65.1013 28.3591 66.8957 26.057 67.7635 23.4203L66.8136 23.1077C66.0174 25.527 64.3558 27.6728 62.3882 29.2144C60.4149 30.7604 58.1845 31.66 56.2805 31.66V32.66ZM67.7629 23.4221C67.9591 22.8334 68.4888 22.42 69.0806 22.42V21.42C68.0083 21.42 67.13 22.1585 66.8142 23.1059L67.7629 23.4221ZM69.0806 22.42C69.8284 22.42 70.5005 23.0921 70.5005 23.84H71.5005C71.5005 22.5398 70.3807 21.42 69.0806 21.42V22.42ZM70.5005 23.84C70.5005 26.1803 70.84 28.3458 71.6145 29.9458C72.3978 31.5641 73.6637 32.66 75.4806 32.66V31.66C74.1614 31.66 73.1873 30.8999 72.5146 29.5101C71.8331 28.1022 71.5005 26.1077 71.5005 23.84H70.5005ZM75.4806 32.66C76.2284 32.66 76.9006 33.3321 76.9006 34.08H77.9006C77.9006 32.7798 76.7807 31.66 75.4806 31.66V32.66ZM76.9006 34.08C76.9006 34.8278 76.2284 35.5 75.4806 35.5V36.5C76.7807 36.5 77.9006 35.3801 77.9006 34.08H76.9006ZM75.4806 35.5C71.5144 35.5 69.4017 32.5611 68.4698 29.5789L67.5153 29.8771C68.5034 33.0389 70.8707 36.5 75.4806 36.5V35.5ZM67.6041 29.4132C64.6625 33.0432 60.4417 35.5 56.2805 35.5V36.5C60.8234 36.5 65.3066 33.8368 68.381 30.0428L67.6041 29.4132ZM56.2805 35.5C53.5708 35.5 51.7545 33.9261 50.9225 31.7868L49.9905 32.1492C50.9506 34.6179 53.1023 36.5 56.2805 36.5V35.5ZM50.1124 31.6053C47.6911 33.9024 44.3534 35.5 40.9205 35.5V36.5C44.6557 36.5 48.23 34.7695 50.8007 32.3307L50.1124 31.6053ZM40.9205 35.5C40.1727 35.5 39.5005 34.8278 39.5005 34.08H38.5005C38.5005 35.3801 39.6204 36.5 40.9205 36.5V35.5ZM39.5005 34.08C39.5005 33.3321 40.1727 32.66 40.9205 32.66V31.66C39.6204 31.66 38.5005 32.7798 38.5005 34.08H39.5005ZM40.9205 32.66C43.0467 32.66 45.2131 31.705 46.9858 30.394C48.7577 29.0837 50.2044 27.3674 50.8561 25.7554L49.929 25.3806C49.3647 26.7766 48.0594 28.3563 46.3912 29.59C44.724 30.823 42.7624 31.66 40.9205 31.66V32.66ZM50.8721 25.7097C52.4902 20.2329 57.7085 15.38 63.3205 15.38V14.38C57.1565 14.38 51.6229 19.639 49.913 25.4263L50.8721 25.7097ZM63.3205 15.38C65.8636 15.38 68.2904 17.0398 69.1171 19.5788L70.068 19.2692C69.1026 16.3042 66.2815 14.38 63.3205 14.38V15.38ZM69.1182 19.5821C69.1878 19.7909 69.2206 19.9038 69.2206 20H70.2206C70.2206 19.7122 70.1253 19.4411 70.0669 19.2659L69.1182 19.5821ZM97.743 19.936C97.743 19.1139 98.4222 18.58 99.163 18.58V17.58C97.9839 17.58 96.743 18.4541 96.743 19.936H97.743ZM99.163 18.58C99.3507 18.58 99.5927 18.6298 99.7714 18.7192L100.219 17.8248C99.8854 17.6581 99.4874 17.58 99.163 17.58V18.58ZM99.774 18.7205C102.012 19.8236 103.163 20.4501 104.376 20.7786C105.605 21.1113 106.891 21.14 109.403 21.14V20.14C106.859 20.14 105.713 20.1047 104.638 19.8134C103.547 19.5179 102.522 18.9604 100.216 17.8235L99.774 18.7205ZM109.403 21.14C110.151 21.14 110.823 21.8121 110.823 22.56H111.823C111.823 21.2598 110.703 20.14 109.403 20.14V21.14ZM110.823 22.56C110.823 23.3078 110.151 23.98 109.403 23.98V24.98C110.703 24.98 111.823 23.8601 111.823 22.56H110.823ZM109.403 23.98C108.18 23.98 107.114 23.9797 106.305 23.9175L106.229 24.9145C107.084 24.9803 108.194 24.98 109.403 24.98V23.98ZM105.801 24.5972C106.221 25.6779 106.343 26.6376 106.343 27.68H107.343C107.343 26.5463 107.209 25.458 106.733 24.2348L105.801 24.5972ZM106.343 27.68C106.343 33.7767 100.972 37.42 95.323 37.42V38.42C101.322 38.42 107.343 34.5113 107.343 27.68H106.343ZM95.323 37.42C91.0864 37.42 86.6188 35.3655 85.3034 31.2401L84.3507 31.5439C85.8513 36.2504 90.8557 38.42 95.323 38.42V37.42ZM84.4735 31.0384C82.0735 33.4384 79.1231 35.5 75.483 35.5V36.5C79.523 36.5 82.7166 34.2095 85.1806 31.7455L84.4735 31.0384ZM75.483 35.5C74.7352 35.5 74.063 34.8278 74.063 34.08H73.063C73.063 35.3801 74.1829 36.5 75.483 36.5V35.5ZM74.063 34.08C74.063 33.3321 74.7352 32.66 75.483 32.66V31.66C74.1829 31.66 73.063 32.7798 73.063 34.08H74.063ZM75.483 32.66C78.1715 32.66 80.7325 30.7058 82.8272 28.5308C84.9426 26.3344 86.7154 23.7664 87.786 22.3494L86.9881 21.7466C85.8827 23.2096 84.1675 25.6976 82.1069 27.8371C80.0256 29.9982 77.7226 31.66 75.483 31.66V32.66ZM87.7939 22.3386C88.0102 22.0358 88.4908 21.78 88.987 21.78V20.78C88.2033 20.78 87.4039 21.1642 86.9802 21.7574L87.7939 22.3386ZM88.987 21.78C89.7561 21.78 90.343 22.4713 90.343 23.2H91.343C91.343 22.0087 90.394 20.78 88.987 20.78V21.78ZM90.343 23.2C90.343 23.4767 90.2491 23.7728 90.0943 24.0307L90.9518 24.5452C91.181 24.1632 91.343 23.6913 91.343 23.2H90.343ZM90.1091 24.0076C89.4333 25.0052 88.8587 25.9227 88.4518 26.7364C88.0508 27.5384 87.7831 28.2962 87.7831 28.96H88.7831C88.7831 28.5357 88.9633 27.9496 89.3463 27.1836C89.7234 26.4293 90.2688 25.5548 90.937 24.5684L90.1091 24.0076ZM87.7831 28.96C87.7831 30.6231 88.655 32.0428 90.0225 33.0295C91.3854 34.0128 93.2523 34.58 95.323 34.58V33.58C93.4257 33.58 91.7727 33.0591 90.6076 32.2185C89.4471 31.3812 88.7831 30.2409 88.7831 28.96H87.7831ZM95.323 34.58C99.9206 34.58 103.503 31.818 103.503 27.68H102.503C102.503 31.0939 99.5575 33.58 95.323 33.58V34.58ZM103.503 27.68C103.503 26.5974 103.348 25.5854 102.594 24.526C101.859 23.4935 100.584 22.4581 98.4525 21.2307L97.9536 22.0973C100.046 23.3019 101.171 24.2504 101.78 25.106C102.37 25.9346 102.503 26.7146 102.503 27.68H103.503ZM98.468 21.24C98.09 21.0037 97.743 20.4536 97.743 19.936H96.743C96.743 20.8264 97.2921 21.6843 97.938 22.088L98.468 21.24ZM118.381 6.41999C119.192 6.41999 119.801 7.02813 119.801 7.83999H120.801C120.801 6.47585 119.745 5.41999 118.381 5.41999V6.41999ZM119.801 7.83999C119.801 8.41163 119.655 9.13364 119.373 9.69638C119.083 10.2769 118.734 10.54 118.381 10.54V11.54C119.308 11.54 119.918 10.8431 120.268 10.1436C120.626 9.42633 120.801 8.54835 120.801 7.83999H119.801ZM118.381 10.54C117.569 10.54 116.961 9.93185 116.961 9.11999H115.961C115.961 10.4841 117.016 11.54 118.381 11.54V10.54ZM116.961 9.11999C116.961 8.54835 117.106 7.82633 117.388 7.26359C117.678 6.68308 118.028 6.41999 118.381 6.41999V5.41999C117.454 5.41999 116.843 6.11689 116.493 6.81638C116.135 7.53364 115.961 8.41163 115.961 9.11999H116.961ZM109.421 21.14C111.952 21.14 113.989 20.6465 115.517 20.1561C116.276 19.9127 116.919 19.6663 117.41 19.4908C117.66 19.4014 117.866 19.3317 118.037 19.2844C118.213 19.2356 118.321 19.22 118.381 19.22V18.22C118.184 18.22 117.974 18.2644 117.77 18.3206C117.562 18.3783 117.326 18.4586 117.073 18.5492C116.558 18.7336 115.949 18.9673 115.212 19.2039C113.748 19.6735 111.817 20.14 109.421 20.14V21.14ZM118.381 19.22C119.011 19.22 119.616 19.6646 119.749 20.2404L120.724 20.0156C120.473 18.9274 119.414 18.22 118.381 18.22V19.22ZM119.755 20.2614C121.732 27.4069 123.641 37.6626 123.641 44.96H124.641C124.641 37.5374 122.709 27.185 120.718 19.9946L119.755 20.2614ZM123.641 44.96C123.641 48.2468 122.841 51.352 121.45 53.6185C120.061 55.8829 118.121 57.26 115.821 57.26V58.26C118.576 58.26 120.796 56.5971 122.303 54.1415C123.808 51.688 124.641 48.3932 124.641 44.96H123.641ZM115.821 57.26C112.897 57.26 110.561 54.9238 110.561 52H109.561C109.561 55.4761 112.344 58.26 115.821 58.26V57.26ZM110.561 52C110.561 51.2521 111.233 50.58 111.981 50.58V49.58C110.68 49.58 109.561 50.6998 109.561 52H110.561ZM111.981 50.58C112.728 50.58 113.401 51.2521 113.401 52H114.401C114.401 50.6998 113.281 49.58 111.981 49.58V50.58ZM113.401 52C113.401 52.6896 113.633 53.3032 114.075 53.7455C114.517 54.1879 115.131 54.42 115.821 54.42V53.42C115.358 53.42 115.012 53.268 114.782 53.0384C114.552 52.8088 114.401 52.4624 114.401 52H113.401ZM115.821 54.42C116.313 54.42 116.867 54.1685 117.389 53.7739C117.925 53.3686 118.482 52.7728 118.985 51.9905C119.994 50.4225 120.801 48.0868 120.801 44.96H119.801C119.801 47.9132 119.039 50.0575 118.144 51.4495C117.695 52.1472 117.216 52.6514 116.786 52.9761C116.342 53.3115 116 53.42 115.821 53.42V54.42ZM120.801 44.96C120.801 38.8203 119.254 29.8786 117.521 23.0137L116.552 23.2583C118.275 30.0894 119.801 38.9397 119.801 44.96H120.801ZM116.878 22.6616C115.174 23.2296 112.352 23.98 109.421 23.98V24.98C112.505 24.98 115.443 24.1943 117.195 23.6103L116.878 22.6616ZM109.421 23.98C108.673 23.98 108.001 23.3078 108.001 22.56H107.001C107.001 23.8601 108.12 24.98 109.421 24.98V23.98ZM108.001 22.56C108.001 21.8121 108.673 21.14 109.421 21.14V20.14C108.12 20.14 107.001 21.2598 107.001 22.56H108.001ZM141.921 7.19999C141.921 6.38813 142.529 5.77999 143.341 5.77999V4.77999C141.976 4.77999 140.921 5.83585 140.921 7.19999H141.921ZM143.341 5.77999C143.912 5.77999 144.634 5.92583 145.197 6.2072C145.777 6.49746 146.041 6.84702 146.041 7.19999H147.041C147.041 6.27295 146.344 5.66252 145.644 5.31277C144.927 4.95414 144.049 4.77999 143.341 4.77999V5.77999ZM146.041 7.19999C146.041 8.01184 145.432 8.61999 144.621 8.61999V9.61999C145.985 9.61999 147.041 8.56413 147.041 7.19999H146.041ZM144.621 8.61999C144.049 8.61999 143.327 8.47414 142.764 8.19277C142.184 7.90252 141.921 7.55295 141.921 7.19999H140.921C140.921 8.12702 141.617 8.73746 142.317 9.0872C143.034 9.44583 143.912 9.61999 144.621 9.61999V8.61999ZM151.801 34.08C151.801 34.8278 151.128 35.5 150.381 35.5V36.5C151.681 36.5 152.801 35.3801 152.801 34.08H151.801ZM150.381 35.5C146.831 35.5 144.434 34.042 142.838 31.8938C141.224 29.7221 140.409 26.8144 140.126 23.9193L139.131 24.0167C139.424 27.0096 140.273 30.1179 142.035 32.4902C143.815 34.8859 146.506 36.5 150.381 36.5V35.5ZM139.363 23.5444C135.572 25.9218 129.111 30.373 123.591 35.5307C120.832 38.1092 118.294 40.877 116.442 43.6622C114.595 46.4408 113.401 49.2831 113.401 52H114.401C114.401 49.5649 115.478 46.9192 117.275 44.2158C119.068 41.519 121.546 38.8107 124.274 36.2613C129.73 31.163 136.133 26.7501 139.894 24.3916L139.363 23.5444ZM113.401 52C113.401 52.7478 112.728 53.42 111.981 53.42V54.42C113.281 54.42 114.401 53.3001 114.401 52H113.401ZM111.981 53.42C111.233 53.42 110.561 52.7478 110.561 52H109.561C109.561 53.3001 110.68 54.42 111.981 54.42V53.42ZM110.561 52C110.561 48.0546 112.374 44.0583 115.17 40.2509C117.961 36.4487 121.698 32.881 125.465 29.8032C129.229 26.7274 133.008 24.153 135.871 22.3351C137.302 21.4264 138.502 20.7075 139.357 20.2102C139.784 19.9616 140.124 19.7685 140.363 19.6349C140.483 19.5681 140.577 19.5162 140.643 19.4799C140.676 19.4617 140.703 19.4475 140.721 19.4374C140.743 19.4261 140.75 19.4225 140.748 19.4232L140.301 18.5288C140.081 18.6386 132.433 22.8179 124.832 29.0288C121.031 32.135 117.224 35.7633 114.364 39.6591C111.507 43.5496 109.561 47.7534 109.561 52H110.561ZM140.802 19.392C140.844 19.3638 140.939 19.3177 141.068 19.2789C141.195 19.2409 141.321 19.22 141.421 19.22V18.22C141.004 18.22 140.523 18.3762 140.247 18.56L140.802 19.392ZM141.421 19.22C142.168 19.22 142.841 19.8921 142.841 20.64H143.841C143.841 19.3398 142.721 18.22 141.421 18.22V19.22ZM142.841 20.64C142.841 24.1839 143.288 27.1683 144.455 29.2816C145.043 30.3473 145.818 31.1991 146.814 31.7816C147.809 32.3638 148.996 32.66 150.381 32.66V31.66C149.141 31.66 148.136 31.3961 147.319 30.9184C146.503 30.4409 145.846 29.7327 145.33 28.7984C144.289 26.9117 143.841 24.1361 143.841 20.64H142.841ZM150.381 32.66C151.128 32.66 151.801 33.3321 151.801 34.08H152.801C152.801 32.7798 151.681 31.66 150.381 31.66V32.66ZM178.658 20C178.658 20.7169 178.082 21.42 177.238 21.42V22.42C178.698 22.42 179.658 21.2031 179.658 20H178.658ZM177.238 21.42C176.646 21.42 176.117 21.0065 175.92 20.4179L174.972 20.7341C175.287 21.6815 176.166 22.42 177.238 22.42V21.42ZM175.918 20.4096C175.457 19.1035 174.038 18.22 172.758 18.22V19.22C173.654 19.22 174.668 19.8725 174.975 20.7424L175.918 20.4096ZM172.758 18.22C170.327 18.22 167.805 19.6991 165.913 21.7225C164.018 23.7496 162.658 26.4257 162.658 28.96H163.658C163.658 26.7583 164.859 24.3144 166.643 22.4055C168.431 20.4928 170.709 19.22 172.758 19.22V18.22ZM162.658 28.96C162.658 30.1116 162.911 31.0444 163.454 31.6961C164.01 32.3631 164.806 32.66 165.718 32.66V31.66C165.03 31.66 164.546 31.4449 164.222 31.0559C163.885 30.6516 163.658 29.9843 163.658 28.96H162.658ZM165.718 32.66C167.91 32.66 170.352 31.6395 172.442 30.0016C174.539 28.3591 176.333 26.057 177.201 23.4203L176.251 23.1077C175.455 25.527 173.793 27.6728 171.826 29.2144C169.852 30.7604 167.622 31.66 165.718 31.66V32.66ZM177.2 23.4221C177.397 22.8335 177.926 22.42 178.518 22.42V21.42C177.446 21.42 176.567 22.1585 176.252 23.1059L177.2 23.4221ZM178.518 22.42C179.266 22.42 179.938 23.0921 179.938 23.84H180.938C180.938 22.5398 179.818 21.42 178.518 21.42V22.42ZM179.938 23.84C179.938 26.1803 180.278 28.3458 181.052 29.9458C181.835 31.5641 183.101 32.66 184.918 32.66V31.66C183.599 31.66 182.625 30.8999 181.952 29.5101C181.271 28.1022 180.938 26.1077 180.938 23.84H179.938ZM184.918 32.66C185.666 32.66 186.338 33.3321 186.338 34.08H187.338C187.338 32.7798 186.218 31.66 184.918 31.66V32.66ZM186.338 34.08C186.338 34.8278 185.666 35.5 184.918 35.5V36.5C186.218 36.5 187.338 35.3801 187.338 34.08H186.338ZM184.918 35.5C180.952 35.5 178.839 32.5611 177.907 29.5789L176.953 29.8771C177.941 33.0389 180.308 36.5 184.918 36.5V35.5ZM177.042 29.4132C174.1 33.0432 169.879 35.5 165.718 35.5V36.5C170.261 36.5 174.744 33.8368 177.819 30.0428L177.042 29.4132ZM165.718 35.5C163.008 35.5 161.192 33.9261 160.36 31.7868L159.428 32.1492C160.388 34.6179 162.54 36.5 165.718 36.5V35.5ZM159.55 31.6053C157.129 33.9024 153.791 35.5 150.358 35.5V36.5C154.093 36.5 157.668 34.7695 160.238 32.3307L159.55 31.6053ZM150.358 35.5C149.61 35.5 148.938 34.8278 148.938 34.08H147.938C147.938 35.3801 149.058 36.5 150.358 36.5V35.5ZM148.938 34.08C148.938 33.3321 149.61 32.66 150.358 32.66V31.66C149.058 31.66 147.938 32.7798 147.938 34.08H148.938ZM150.358 32.66C152.484 32.66 154.651 31.705 156.423 30.394C158.195 29.0837 159.642 27.3674 160.294 25.7554L159.366 25.3806C158.802 26.7766 157.497 28.3563 155.829 29.59C154.162 30.823 152.2 31.66 150.358 31.66V32.66ZM160.31 25.7097C161.928 20.2329 167.146 15.38 172.758 15.38V14.38C166.594 14.38 161.06 19.639 159.351 25.4263L160.31 25.7097ZM172.758 15.38C175.301 15.38 177.728 17.0398 178.555 19.5788L179.505 19.2692C178.54 16.3042 175.719 14.38 172.758 14.38V15.38ZM178.556 19.5821C178.625 19.7909 178.658 19.9038 178.658 20H179.658C179.658 19.7122 179.563 19.4411 179.504 19.2659L178.556 19.5821ZM204.121 19.5C203.415 19.5 202.701 18.8707 202.701 18.08H201.701C201.701 19.4653 202.906 20.5 204.121 20.5V19.5ZM202.701 18.08C202.701 17.6276 202.9 17.2414 203.277 16.8956C203.664 16.5412 204.221 16.2473 204.873 16.0149C206.175 15.5504 207.716 15.38 208.601 15.38V14.38C207.629 14.38 205.97 14.5616 204.537 15.0731C203.82 15.3287 203.125 15.6788 202.602 16.1584C202.069 16.6466 201.701 17.2844 201.701 18.08H202.701ZM208.601 15.38C213.508 15.38 217.061 18.9321 217.061 23.84H218.061C218.061 18.3798 214.061 14.38 208.601 14.38V15.38ZM217.061 23.84C217.061 30.5008 211.245 35.5 204.761 35.5V36.5C211.716 36.5 218.061 31.1312 218.061 23.84H217.061ZM204.761 35.5C200.733 35.5 197.474 33.2512 196.207 29.7498L195.266 30.0902C196.687 34.0127 200.34 36.5 204.761 36.5V35.5ZM195.351 29.6015C192.944 32.5152 189.552 35.5 184.921 35.5V36.5C190.017 36.5 193.665 33.2127 196.122 30.2384L195.351 29.6015ZM184.921 35.5C184.173 35.5 183.501 34.8278 183.501 34.08H182.501C182.501 35.3801 183.62 36.5 184.921 36.5V35.5ZM183.501 34.08C183.501 33.3321 184.173 32.66 184.921 32.66V31.66C183.62 31.66 182.501 32.7798 182.501 34.08H183.501ZM184.921 32.66C187.889 32.66 190.446 30.7516 192.387 28.6076C194.341 26.4492 195.757 23.9573 196.44 22.5916L195.545 22.1444C194.884 23.4667 193.516 25.8708 191.646 27.9364C189.763 30.0164 187.456 31.66 184.921 31.66V32.66ZM196.44 22.5916C196.679 22.1141 197.214 21.78 197.721 21.78V20.78C196.82 20.78 195.947 21.3419 195.545 22.1444L196.44 22.5916ZM197.721 21.78C198.564 21.78 199.141 22.4831 199.141 23.2H200.141C200.141 21.9969 199.181 20.78 197.721 20.78V21.78ZM199.141 23.2C199.141 23.3771 199.101 23.4879 199.027 23.7827L199.998 24.0253C200.052 23.808 200.141 23.5349 200.141 23.2H199.141ZM199.048 23.7183C198.637 24.7474 198.501 25.9641 198.501 26.4H199.501C199.501 26.0679 199.62 24.9806 199.977 24.0897L199.048 23.7183ZM198.501 26.4C198.501 28.2416 199.117 29.8152 200.231 30.9295C201.345 32.0439 202.919 32.66 204.761 32.66V31.66C203.146 31.66 201.84 31.124 200.938 30.2224C200.036 29.3208 199.501 28.0144 199.501 26.4H198.501ZM204.761 32.66C209.798 32.66 214.221 28.6976 214.221 23.84H213.221C213.221 28.0704 209.323 31.66 204.761 31.66V32.66ZM214.221 23.84C214.221 22.165 213.689 20.7489 212.69 19.7504C211.692 18.752 210.276 18.22 208.601 18.22V19.22C210.062 19.22 211.205 19.68 211.983 20.4575C212.761 21.2351 213.221 22.379 213.221 23.84H214.221ZM208.601 18.22C207.245 18.22 205.92 18.5576 204.918 19.2731L205.499 20.0869C206.289 19.5224 207.396 19.22 208.601 19.22V18.22ZM204.896 19.2896C204.705 19.4426 204.456 19.5 204.121 19.5V20.5C204.553 20.5 205.072 20.4293 205.521 20.0704L204.896 19.2896ZM271.563 25.4049C269.605 25.9269 268.008 26.636 266.888 27.4422C265.788 28.2338 265.048 29.196 265.048 30.24H266.048C266.048 29.6839 266.46 28.9822 267.472 28.2538C268.464 27.54 269.939 26.873 271.821 26.3711L271.563 25.4049ZM265.048 30.24C265.048 30.9128 265.41 31.5366 266.05 31.9731C266.685 32.4057 267.592 32.66 268.748 32.66V31.66C267.728 31.66 267.035 31.4343 266.614 31.1469C266.198 30.8634 266.048 30.5272 266.048 30.24H265.048ZM268.748 32.66C270.07 32.66 271.304 32.1083 272.207 31.3107C273.103 30.519 273.728 29.4325 273.728 28.32H272.728C272.728 29.0634 272.297 29.897 271.545 30.5613C270.8 31.2197 269.794 31.66 268.748 31.66V32.66ZM273.728 28.32C273.728 27.324 273.007 26.2997 272.004 25.4976L271.38 26.2784C272.297 27.0123 272.728 27.78 272.728 28.32H273.728ZM267.203 22.9907C264.142 21.7858 260.652 20.7104 257.881 19.0885C255.133 17.4807 253.248 15.4225 253.248 12.32H252.248C252.248 15.9375 254.491 18.2633 257.376 19.9515C260.236 21.6255 263.882 22.7582 266.837 23.9212L267.203 22.9907ZM253.248 12.32C253.248 9.0981 255.353 6.35106 258.253 4.3816C261.149 2.41442 264.733 1.29999 267.468 1.29999V0.299988C264.507 0.299988 260.731 1.48955 257.691 3.55438C254.655 5.61691 252.248 8.62988 252.248 12.32H253.248ZM267.468 1.29999C271.244 1.29999 274.648 3.7129 274.648 7.83999H275.648C275.648 3.00707 271.629 0.299988 267.468 0.299988V1.29999ZM274.648 7.83999C274.648 9.89335 273.773 11.3955 272.872 12.4024C272.42 12.9067 271.964 13.2836 271.614 13.5373C271.44 13.664 271.293 13.7593 271.187 13.8239C271.079 13.89 271.02 13.9212 271.02 13.9208L271.468 14.8152C271.572 14.7628 272.604 14.1999 273.617 13.0695C274.635 11.9324 275.648 10.2026 275.648 7.83999H274.648ZM271.058 13.9037C270.778 14.0158 270.587 14.06 270.348 14.06V15.06C270.75 15.06 271.07 14.9762 271.43 14.8322L271.058 13.9037ZM270.348 14.06C269.631 14.06 268.928 13.4839 268.928 12.64H267.928C267.928 14.1001 269.145 15.06 270.348 15.06V14.06ZM268.928 12.64C268.928 12.1877 269.062 11.9218 269.251 11.7096C269.471 11.4632 269.758 11.2872 270.155 11.0096C270.527 10.749 270.955 10.421 271.28 9.912C271.609 9.39522 271.808 8.73402 271.808 7.83999H270.808C270.808 8.57795 270.647 9.04475 270.437 9.37397C270.222 9.71093 269.929 9.94693 269.581 10.1904C269.258 10.4168 268.825 10.6848 268.505 11.0443C268.154 11.4382 267.928 11.9403 267.928 12.64H268.928ZM271.808 7.83999C271.808 6.74946 271.403 5.80449 270.625 5.13971C269.854 4.48221 268.768 4.13999 267.468 4.13999V5.13999C268.6 5.13999 269.434 5.43776 269.975 5.90027C270.509 6.35548 270.808 7.01051 270.808 7.83999H271.808ZM267.468 4.13999C265.06 4.13999 262.241 5.28204 260.038 6.82216C258.93 7.59616 257.955 8.48663 257.251 9.41367C256.553 10.3335 256.088 11.3348 256.088 12.32H257.088C257.088 11.6411 257.416 10.8505 258.047 10.0183C258.674 9.19335 259.566 8.37182 260.61 7.64182C262.711 6.17394 265.332 5.13999 267.468 5.13999V4.13999ZM256.088 12.32C256.088 13.6471 256.998 14.9128 258.529 16.0565C260.076 17.2125 262.355 18.3211 265.324 19.3218L265.644 18.3742C262.726 17.3909 260.556 16.3234 259.127 15.2555C257.682 14.1752 257.088 13.1689 257.088 12.32H256.088ZM265.329 19.3235C267.88 20.1525 270.206 21.0349 272.205 22.2219L272.715 21.3621C270.618 20.1171 268.208 19.2075 265.639 18.3725L265.329 19.3235ZM272.564 22.281C276.422 21.4589 280.864 21.14 285.388 21.14V20.14C280.824 20.14 276.306 20.4611 272.356 21.303L272.564 22.281ZM285.388 21.14C286.136 21.14 286.808 21.8121 286.808 22.56H287.808C287.808 21.2599 286.688 20.14 285.388 20.14V21.14ZM286.808 22.56C286.808 23.3079 286.136 23.98 285.388 23.98V24.98C286.688 24.98 287.808 23.8601 287.808 22.56H286.808ZM285.388 23.98C282.169 23.98 278.947 24.173 276.042 24.5604L276.174 25.5516C279.029 25.1709 282.207 24.98 285.388 24.98V23.98ZM275.679 25.3132C276.218 26.2112 276.568 27.2753 276.568 28.32H277.568C277.568 27.0607 277.15 25.8208 276.537 24.7987L275.679 25.3132ZM276.568 28.32C276.568 32.5187 272.579 35.5 268.748 35.5V36.5C272.982 36.5 277.568 33.2093 277.568 28.32H276.568ZM268.748 35.5C267.353 35.5 265.694 35.1183 264.4 34.2629C263.124 33.4199 262.208 32.1258 262.208 30.24H261.208C261.208 32.5142 262.34 34.1001 263.848 35.0971C265.338 36.0817 267.199 36.5 268.748 36.5V35.5ZM262.208 30.24C262.208 27.2748 264.471 25.2267 267.235 23.9072L266.805 23.0047C263.937 24.3733 261.208 26.6771 261.208 30.24H262.208ZM298.222 18.86C297.472 18.86 296.738 18.3179 296.738 17.44H295.738C295.738 18.9941 297.052 19.86 298.222 19.86V18.86ZM296.738 17.44C296.738 17.0004 297.007 16.5119 297.519 16.2047L297.005 15.3472C296.237 15.8081 295.738 16.5995 295.738 17.44H296.738ZM297.459 16.2356C297.87 16.0596 301.832 14.1 310.318 14.1V13.1C301.652 13.1 297.551 15.1083 297.065 15.3164L297.459 16.2356ZM310.318 14.1C313.098 14.1 315.666 14.7255 317.623 16.2139C319.567 17.6924 320.968 20.0681 321.341 23.699L322.335 23.597C321.94 19.7399 320.429 17.0916 318.229 15.418C316.042 13.7545 313.234 13.1 310.318 13.1V14.1ZM321.341 23.6977C321.404 24.3289 321.549 25.9935 321.767 27.4958C321.876 28.2447 322.005 28.9739 322.157 29.523C322.232 29.7938 322.319 30.0493 322.426 30.247C322.479 30.3452 322.551 30.4547 322.648 30.5454C322.747 30.6378 322.906 30.74 323.118 30.74V29.74C323.242 29.74 323.315 29.8007 323.33 29.8146C323.343 29.8269 323.333 29.821 323.306 29.7715C323.253 29.6737 323.189 29.5042 323.121 29.2569C322.987 28.7701 322.864 28.0913 322.757 27.3522C322.543 25.8785 322.4 24.2471 322.336 23.5982L321.341 23.6977ZM323.118 30.74C323.564 30.74 323.97 30.5121 324.33 30.1989C324.694 29.8812 325.068 29.4264 325.458 28.8595C326.239 27.7242 327.149 26.0485 328.237 23.8716L327.343 23.4244C326.255 25.5995 325.373 27.2198 324.634 28.2925C324.264 28.8296 323.946 29.2068 323.673 29.445C323.394 29.6879 323.216 29.74 323.118 29.74V30.74ZM328.237 23.8716C329.066 22.214 329.892 20.1026 331.112 18.3497C332.318 16.6187 333.818 15.38 335.918 15.38V14.38C333.346 14.38 331.582 15.9253 330.292 17.7782C329.016 19.6094 328.114 21.882 327.343 23.4244L328.237 23.8716ZM335.918 15.38C337.176 15.38 338.101 15.778 338.803 16.4043C339.517 17.0405 340.032 17.9389 340.408 18.978C341.166 21.0751 341.304 23.5631 341.501 25.2424L342.495 25.1256C342.308 23.5409 342.158 20.8769 341.348 18.638C340.94 17.5091 340.351 16.4435 339.469 15.6577C338.576 14.862 337.412 14.38 335.918 14.38V15.38ZM341.502 25.2438C341.82 27.8823 342.161 29.7283 342.826 30.9093C343.17 31.5201 343.609 31.972 344.184 32.2631C344.751 32.5499 345.409 32.66 346.158 32.66V31.66C345.5 31.66 345.013 31.5621 344.636 31.3709C344.267 31.184 343.962 30.8878 343.698 30.4187C343.147 29.4397 342.817 27.7976 342.494 25.1242L341.502 25.2438ZM346.158 32.66C346.906 32.66 347.578 33.3321 347.578 34.08H348.578C348.578 32.7798 347.458 31.66 346.158 31.66V32.66ZM347.578 34.08C347.578 34.8279 346.906 35.5 346.158 35.5V36.5C347.458 36.5 348.578 35.3801 348.578 34.08H347.578ZM346.158 35.5C344.697 35.5 343.56 35.1813 342.66 34.652C341.759 34.1222 341.067 33.3644 340.525 32.4426C339.43 30.5799 338.974 28.0978 338.654 25.6316L337.662 25.7604C337.982 28.2222 338.454 30.8921 339.663 32.9493C340.273 33.9876 341.078 34.8818 342.153 35.514C343.229 36.1467 344.547 36.5 346.158 36.5V35.5ZM338.654 25.6316C338.333 23.1621 337.993 21.3795 337.609 20.2049C337.419 19.6205 337.206 19.1502 336.956 18.8168C336.703 18.4803 336.36 18.22 335.918 18.22V19.22C335.924 19.22 336.005 19.2156 336.156 19.4172C336.31 19.6218 336.481 19.9714 336.659 20.5151C337.012 21.5965 337.343 23.3019 337.662 25.7604L338.654 25.6316ZM335.918 18.22C335.465 18.22 335.053 18.4627 334.694 18.7823C334.326 19.1092 333.948 19.5749 333.554 20.1492C332.765 21.2999 331.856 22.9748 330.799 25.0884L331.693 25.5356C332.748 23.4252 333.631 21.8041 334.378 20.7148C334.753 20.1691 335.078 19.7788 335.358 19.5297C335.647 19.2733 335.827 19.22 335.918 19.22V18.22ZM330.799 25.0884C329.938 26.8102 329.113 28.9212 327.9 30.6578C326.705 32.3695 325.221 33.58 323.118 33.58V34.58C325.687 34.58 327.435 33.0705 328.72 31.2302C329.988 29.4148 330.89 27.1418 331.693 25.5356L330.799 25.0884ZM323.118 33.58C321.706 33.58 320.793 32.9291 320.183 32.0639C319.558 31.1774 319.255 30.064 319.133 29.2093L318.143 29.3507C318.277 30.2879 318.614 31.5746 319.365 32.6401C320.131 33.7268 321.33 34.58 323.118 34.58V33.58ZM319.133 29.2058C318.942 27.9351 318.623 25.32 318.496 23.9846L317.5 24.0794C317.629 25.432 317.95 28.0649 318.144 29.3542L319.133 29.2058ZM318.496 23.984C318.233 21.2575 317.417 19.4491 315.974 18.3467C314.55 17.2589 312.617 16.94 310.318 16.94V17.94C312.563 17.94 314.214 18.261 315.367 19.1413C316.5 20.0069 317.251 21.4944 317.5 24.08L318.496 23.984ZM310.318 16.94C309.234 16.94 308.256 16.9397 307.338 17.0053L307.41 18.0027C308.284 17.9402 309.226 17.94 310.318 17.94V16.94ZM307.009 17.846C308.837 19.7956 309.818 22.423 309.818 25.12H310.818C310.818 22.185 309.751 19.3084 307.739 17.162L307.009 17.846ZM309.818 25.12C309.818 31.6278 304.666 36.78 298.158 36.78V37.78C305.218 37.78 310.818 32.1801 310.818 25.12H309.818ZM298.158 36.78C292.93 36.78 289.058 32.9078 289.058 27.68H288.058C288.058 33.4601 292.378 37.78 298.158 37.78V36.78ZM289.058 27.68C289.058 26.5131 289.243 25.4004 289.429 24.5924L288.455 24.3676C288.257 25.2236 288.058 26.4149 288.058 27.68H289.058ZM288.942 23.98H285.358V24.98H288.942V23.98ZM285.358 23.98C284.61 23.98 283.938 23.3079 283.938 22.56H282.938C282.938 23.8601 284.058 24.98 285.358 24.98V23.98ZM283.938 22.56C283.938 21.8121 284.61 21.14 285.358 21.14V20.14C284.058 20.14 282.938 21.2599 282.938 22.56H283.938ZM285.358 21.14H291.758V20.14H285.358V21.14ZM291.758 21.14C292.549 21.14 293.178 21.8545 293.178 22.56H294.178C294.178 21.3455 293.143 20.14 291.758 20.14V21.14ZM293.178 22.56C293.178 23.2057 292.951 23.4403 292.592 24.1501C292.234 24.8574 291.898 25.8157 291.898 27.68H292.898C292.898 25.9603 293.202 25.1586 293.484 24.6019C293.765 24.0476 294.178 23.5143 294.178 22.56H293.178ZM291.898 27.68C291.898 29.5216 292.514 31.0952 293.628 32.2095C294.743 33.3239 296.316 33.94 298.158 33.94V32.94C296.544 32.94 295.237 32.404 294.336 31.5024C293.434 30.6008 292.898 29.2944 292.898 27.68H291.898ZM298.158 33.94C303.17 33.94 306.978 30.1321 306.978 25.12H305.978C305.978 29.5798 302.618 32.94 298.158 32.94V33.94ZM306.978 25.12C306.978 23.2805 306.349 21.5697 305.34 20.3113C304.333 19.0546 302.92 18.22 301.358 18.22V19.22C302.548 19.22 303.695 19.8574 304.56 20.9367C305.423 22.0143 305.978 23.5035 305.978 25.12H306.978ZM301.358 18.22C300.268 18.22 299.707 18.3931 299.262 18.5784C298.849 18.7503 298.677 18.86 298.222 18.86V19.86C298.919 19.86 299.291 19.6497 299.646 19.5015C299.969 19.3669 300.4 19.22 301.358 19.22V18.22ZM361.031 52C361.031 52.7037 361.236 53.3246 361.681 53.7695C362.126 54.2145 362.747 54.42 363.451 54.42V53.42C362.938 53.42 362.599 53.2735 362.388 53.0624C362.177 52.8514 362.031 52.5123 362.031 52H361.031ZM363.451 54.42C364.666 54.42 365.761 53.7558 366.536 52.7438C367.312 51.7299 367.791 50.3411 367.791 48.8H366.791C366.791 50.1389 366.374 51.31 365.741 52.1361C365.108 52.9642 364.283 53.42 363.451 53.42V54.42ZM367.791 48.8C367.791 46.1527 367.128 43.8386 366.141 41.7982L365.24 42.2338C366.173 44.1614 366.791 46.3272 366.791 48.8H367.791ZM365.278 41.7336C364.013 43.5819 362.956 45.4995 362.213 47.2706C361.475 49.0318 361.031 50.6873 361.031 52H362.031C362.031 50.8807 362.418 49.3682 363.136 47.6574C363.849 45.9565 364.872 44.0981 366.103 42.2983L365.278 41.7336ZM366.511 20C366.511 19.5755 366.237 19.127 365.849 18.8063C365.437 18.4664 364.843 18.22 364.091 18.22V19.22C364.618 19.22 364.984 19.3896 365.212 19.5777C365.328 19.6734 365.408 19.7731 365.456 19.8577C365.48 19.8999 365.494 19.9354 365.502 19.9621C365.511 19.9896 365.511 20.0021 365.511 20H366.511ZM364.091 18.22C362.249 18.22 360.675 18.836 359.561 19.9504C358.447 21.0648 357.831 22.6384 357.831 24.48H358.831C358.831 22.8656 359.366 21.5592 360.268 20.6575C361.17 19.7559 362.476 19.22 364.091 19.22V18.22ZM357.831 24.48C357.831 25.6683 358.18 26.8365 358.785 27.9779L359.668 27.51C359.121 26.4755 358.831 25.4677 358.831 24.48H357.831ZM359.486 28.1716C361.632 26.8707 363.372 25.4306 364.581 24.0309C365.775 22.6483 366.511 21.237 366.511 20H365.511C365.511 20.875 364.966 22.0556 363.824 23.3771C362.697 24.6814 361.045 26.0573 358.967 27.3164L359.486 28.1716ZM363.774 38.2434C362.894 37.1686 361.968 36.2104 361.057 35.2751C360.141 34.3356 359.243 33.4212 358.393 32.4136L357.628 33.0584C358.506 34.0988 359.432 35.0403 360.34 35.9729C361.253 36.9096 362.151 37.8394 363 38.8766L363.774 38.2434ZM357.793 32.286C353.732 34.2529 349.458 35.5 346.171 35.5V36.5C349.667 36.5 354.097 35.1871 358.229 33.186L357.793 32.286ZM346.171 35.5C345.423 35.5 344.751 34.8279 344.751 34.08H343.751C343.751 35.3801 344.87 36.5 346.171 36.5V35.5ZM344.751 34.08C344.751 33.3321 345.423 32.66 346.171 32.66V31.66C344.87 31.66 343.751 32.7798 343.751 34.08H344.751ZM346.171 32.66C348.574 32.66 352.425 31.6705 356.045 29.9895L355.624 29.0825C352.077 30.7295 348.375 31.66 346.171 31.66V32.66ZM356.282 29.3124C355.533 27.8145 354.991 26.2297 354.991 24.48H353.991C353.991 26.4423 354.6 28.1854 355.387 29.7596L356.282 29.3124ZM354.991 24.48C354.991 19.2521 358.863 15.38 364.091 15.38V14.38C358.31 14.38 353.991 18.6998 353.991 24.48H354.991ZM364.091 15.38C365.269 15.38 366.6 15.7807 367.627 16.5652C368.641 17.3405 369.351 18.4813 369.351 20H370.351C370.351 18.1267 369.46 16.7074 368.234 15.7707C367.021 14.8433 365.472 14.38 364.091 14.38V15.38ZM369.351 20C369.351 22.1139 368.399 24.0668 366.887 25.835C365.373 27.6042 363.325 29.1563 361.206 30.4535L361.728 31.3065C363.896 29.9797 366.04 28.3638 367.647 26.485C369.254 24.6052 370.351 22.4301 370.351 20H369.351ZM361.09 31.2092C361.775 31.9914 362.523 32.7396 363.263 33.4876C364.007 34.24 364.747 34.9955 365.437 35.811L366.2 35.165C365.482 34.3165 364.718 33.536 363.974 32.7843C363.226 32.0283 362.502 31.3046 361.843 30.5507L361.09 31.2092ZM366.195 35.8172C367.538 34.2822 368.862 32.8342 370.176 31.7076L369.525 30.9484C368.151 32.1258 366.787 33.6218 365.442 35.1587L366.195 35.8172ZM370.171 31.7121C370.451 31.4782 370.781 31.38 371.131 31.38V30.38C370.584 30.38 370.018 30.5378 369.53 30.9439L370.171 31.7121ZM371.131 31.38C371.889 31.38 372.551 31.9989 372.551 32.8H373.551C373.551 31.4251 372.42 30.38 371.131 30.38V31.38ZM372.551 32.8C372.551 33.2008 372.398 33.6239 372.085 33.8924L372.736 34.6516C373.319 34.1521 373.551 33.4232 373.551 32.8H372.551ZM372.085 33.8924C370.714 35.0677 369.222 36.6263 367.799 38.3722L368.574 39.0038C369.968 37.2937 371.419 35.7803 372.736 34.6516L372.085 33.8924ZM367.759 38.9467C369.388 41.6411 370.631 44.8804 370.631 48.8H371.631C371.631 44.6556 370.313 41.2389 368.614 38.4293L367.759 38.9467ZM370.631 48.8C370.631 50.7816 369.988 52.9136 368.763 54.5391C367.547 56.1537 365.766 57.26 363.451 57.26V58.26C366.127 58.26 368.186 56.9663 369.562 55.1409C370.929 53.3264 371.631 50.9783 371.631 48.8H370.631ZM363.451 57.26C360.463 57.26 358.191 54.9878 358.191 52H357.191C357.191 55.5401 359.91 58.26 363.451 58.26V57.26ZM358.191 52C358.191 47.8827 360.726 43.1319 363.793 38.8512L362.98 38.2688C359.903 42.5641 357.191 47.5412 357.191 52H358.191Z" fill="#1B0B49" mask="url(#path-1-outside-1_11257_355)"/>
</svg>
