<svg width="300" height="317" viewBox="0 0 300 317" fill="none" xmlns="http://www.w3.org/2000/svg">
<path fill-rule="evenodd" clip-rule="evenodd" d="M113.324 283.376L113.323 283.377L94.3707 263.351C94.4563 264.579 94.5 265.82 94.5 267.073C94.5 294.647 73.3455 317 47.25 317C21.1545 317 0 294.647 0 267.073C0 239.498 21.1545 217.145 47.25 217.145C48.4349 217.145 49.6095 217.191 50.7725 217.281L31.294 196.7L31.2981 196.695C11.9377 175.826 0 147.238 0 115.705C0 51.8029 49.0248 0 109.5 0C139.342 0 166.396 12.6141 186.147 33.0717L186.15 33.0679L186.736 33.6863C186.864 33.8214 186.993 33.9569 187.121 34.0926L205.629 53.6507C205.543 52.4215 205.5 51.1798 205.5 49.9275C205.5 22.3533 226.655 0 252.75 0C278.845 0 300 22.3533 300 49.9275C300 77.5017 278.845 99.855 252.75 99.855C251.565 99.855 250.391 99.8089 249.227 99.7182L267.738 119.279C267.866 119.412 267.991 119.546 268.117 119.68L268.179 119.745C287.847 140.662 300 169.479 300 201.295C300 265.197 250.976 317 190.5 317C160.391 317 133.119 304.158 113.324 283.376Z" fill="#1B0B49"/>
</svg>
