<svg width="311" height="341" viewBox="0 0 311 341" fill="none" xmlns="http://www.w3.org/2000/svg">
<path d="M106.804 27.8507C128.62 -9.28356 182.38 -9.28354 204.196 27.8507L204.988 29.1993C215.054 46.3305 233.4 56.9095 253.288 57.0486L254.856 57.0595C297.966 57.361 324.845 103.855 303.551 141.291L302.777 142.651C292.954 159.921 292.954 181.08 302.777 198.349L303.551 199.708C324.845 237.145 297.966 283.639 254.856 283.94L253.288 283.951C233.4 284.09 215.054 294.67 204.988 311.8L204.196 313.149C182.38 350.284 128.62 350.284 106.804 313.149L106.011 311.8C95.9467 294.67 77.5987 284.09 57.7106 283.951L56.1449 283.94C13.0344 283.639 -13.845 237.145 7.44872 199.708L8.22212 198.349C18.0456 181.08 18.0456 159.921 8.22212 142.651L7.44872 141.291C-13.845 103.855 13.0344 57.361 56.1449 57.0595L57.7106 57.0486C77.5989 56.9095 95.9467 46.3305 106.011 29.1993L106.804 27.8507Z" fill="#1B0B49"/>
</svg>
